<svg version="1.2" xmlns="http://www.w3.org/2000/svg" viewBox="0 0 375 116" width="375" height="116">
	<title>logo-svg</title>
	<style>
		.s0 { fill: #000000 } 
	</style>
	<g>
		<g>
			<g>
				<path class="s0" d="m4 80.8v-40h13.8v4.2h0.1q5.4-5.3 11.5-5.3 4.3 0 8.2 1.8 3.8 1.7 5.7 5.5 6.1-7.3 13.3-7.3 6.4 0 11 3.6 4.6 3.5 4.6 11.2v26.3h-13.8v-22.6q0-3.2-1.8-5.3-1.7-2.2-5.2-2.2-3.1 0-4.7 1.9-1.6 1.8-1.7 4.4v23.8h-13.8v-22.6q0-3.2-1.8-5.3-1.7-2.2-5.2-2.2-3.2 0-4.8 2-1.6 2-1.6 4.7v23.4z"/>
			</g>
		</g>
	</g>
	<g>
		<g>
			<g>
				<path fill-rule="evenodd" class="s0" d="m113.8 62.7h-29q0 4.2 2.8 6.3 2.7 2 5.9 2 3.3 0 5.3-0.9 2-0.9 4.4-3.6l10 5q-6.2 10.5-20.7 10.5-9 0-15.5-6.2-6.5-6.2-6.5-14.9 0-8.8 6.5-15 6.5-6.2 15.5-6.2 9.5 0 15.4 5.5 6 5.5 6 15.7 0 1.4-0.1 1.8zm-28.6-7.6h15.2q-0.4-3.1-2.4-4.8-2-1.7-5.1-1.7-3.4 0-5.5 1.8-2 1.8-2.2 4.7z"/>
			</g>
		</g>
	</g>
	<g>
		<g>
			<g>
				<path fill-rule="evenodd" class="s0" d="m115.8 75.9q-5.6-6.1-5.6-15 0-8.9 5.6-15.1 5.6-6.1 14.2-6.1 8 0 13.1 5v-3.9h13.8v40h-13.6v-4.5h-0.2q-5.1 5.7-13.1 5.7-8.6 0-14.2-6.1zm11.7-21.8q-2.7 2.6-2.7 6.8 0 4.1 2.6 6.7 2.6 2.6 6.8 2.6 4 0 6.6-2.6 2.6-2.7 2.6-6.7 0-4.2-2.7-6.8-2.6-2.7-6.5-2.7-4 0-6.7 2.7z"/>
			</g>
		</g>
	</g>
	<g>
		<g>
			<g>
				<path class="s0" d="m158.9 80.8v-67h13.8v67z"/>
			</g>
		</g>
	</g>
	<g>
		<g>
			<g>
				<path class="s0" d="m174.7 80.8v-40h13.8v4.2h0.2q5.4-5.3 11.5-5.3 4.3 0 8.1 1.8 3.8 1.7 5.8 5.5 6.1-7.3 13.2-7.3 6.4 0 11 3.6 4.6 3.5 4.6 11.2v26.3h-13.8v-22.6q0-3.2-1.7-5.3-1.8-2.2-5.3-2.2-3 0-4.6 1.9-1.6 1.8-1.8 4.4v23.8h-13.8v-22.6q0-3.2-1.7-5.3-1.8-2.2-5.3-2.2-3.2 0-4.8 2-1.6 2-1.6 4.7v23.4z"/>
			</g>
		</g>
	</g>
	<g>
		<g>
			<g>
				<path fill-rule="evenodd" class="s0" d="m246.9 75.9q-5.6-6.1-5.6-15 0-8.9 5.6-15.1 5.6-6.1 14.2-6.1 8 0 13.1 5v-3.9h13.8v40h-13.6v-4.5h-0.2q-5.1 5.7-13.1 5.7-8.6 0-14.2-6.1zm11.7-21.8q-2.7 2.6-2.7 6.8 0 4.1 2.6 6.7 2.6 2.6 6.8 2.6 4 0 6.6-2.6 2.7-2.7 2.7-6.7-0.1-4.2-2.7-6.8-2.7-2.7-6.6-2.7-4 0-6.7 2.7z"/>
			</g>
		</g>
	</g>
	<g>
		<g>
			<g>
				<path class="s0" d="m292.4 40.8v-14.8h13.8v14.8h8.4v10.6h-8.4v12.7q0 5.5 3.1 5.5 0.8 0 1.6-0.3 0.9-0.3 1.4-0.6l0.4-0.4 3.5 11.2q-4.5 2.5-10.2 2.5-3.9 0-6.7-1.4-2.8-1.3-4.2-3.6-1.5-2.3-2.1-4.9-0.6-2.5-0.6-5.4v-15.3h-5.8v-10.6z"/>
			</g>
		</g>
	</g>
	<g>
		<g>
			<g>
				<path fill-rule="evenodd" class="s0" d="m353.9 62.7h-29q0 4.2 2.8 6.3 2.7 2 5.9 2 3.3 0 5.3-0.9 2-0.9 4.4-3.6l10 5q-6.2 10.5-20.7 10.5-9 0-15.5-6.2-6.5-6.2-6.5-14.9 0-8.8 6.5-15 6.5-6.2 15.5-6.2 9.5 0 15.4 5.5 6 5.5 6 15.7 0 1.4-0.1 1.8zm-28.6-7.6h15.2q-0.4-3.1-2.4-4.8-2-1.7-5.1-1.7-3.4 0-5.5 1.8-2 1.8-2.2 4.7z"/>
			</g>
		</g>
	</g>
	<g>
		<g>
			<g>
				<path class="s0" d="m362 64.1q3.8 0 6.4 2.6 2.6 2.7 2.6 6.4 0 3.7-2.6 6.3-2.6 2.6-6.4 2.6-3.6 0-6.2-2.6-2.7-2.6-2.7-6.3 0-3.7 2.7-6.4 2.6-2.6 6.2-2.6z"/>
			</g>
		</g>
	</g>
</svg>